<?xml version="1.0" encoding="utf-8"?>
<!-- Generator: Adobe Illustrator 26.5.0, SVG Export Plug-In . SVG Version: 6.00 Build 0)  -->
<svg version="1.1" id="Capa_1" xmlns="http://www.w3.org/2000/svg" xmlns:xlink="http://www.w3.org/1999/xlink" x="0px" y="0px"
	 viewBox="0 0 800 2630" style="enable-background:new 0 0 800 2630;" xml:space="preserve">
<style type="text/css">
	.st0{fill:#EEE6DC;}
	.st1{fill:#FFFFFF;stroke:#45446C;stroke-miterlimit:10;}
	.st2{fill:#FFFFFF;stroke:#63699E;stroke-miterlimit:10;}
	.st3{fill:none;}
	.st4{fill:#231F20;}
	.st5{font-family:'Roboto-Regular';}
	.st6{font-size:24px;}
	.st7{fill:none;stroke:#231F20;stroke-miterlimit:10;}
	.st8{fill:#2BAAE1;}
	.st9{fill:#FFFFFF;}
	.st10{font-family:'Roboto-Bold';}
</style>
<rect x="-2" class="st0" width="800" height="2630"/>
<image style="overflow:visible;" width="800" height="2628" xlink:href="5D091519596A0394.png"  transform="matrix(1 0 0 1 8.333334e-02 1.5)">
</image>
<polygon class="st1" points="767.4,1721.4 503.8,1721.4 503.8,1515.1 557.6,1515.1 465.9,1394.5 587.4,1515.1 767.4,1515.1 "/>
<polygon class="st1" points="759.5,2194 478.7,2194 478.7,2066.3 367.6,2000 478.7,2036.4 478.7,1948.5 759.5,1948.5 "/>
<polygon class="st2" points="774.4,435.3 533.8,435.3 533.8,389.8 431.8,438.7 533.8,365.6 533.8,238.5 774.4,238.5 "/>
<rect x="534.1" y="1773.3" class="st3" width="222.4" height="175.2"/>
<text transform="matrix(0.9824 0 0 1 582.675 1791.5974)"><tspan x="0" y="0" class="st4 st5 st6">The peony is the </tspan><tspan x="3.4" y="28.8" class="st4 st5 st6">&apos;king of flowers,&apos; </tspan><tspan x="-35.9" y="57.6" class="st4 st5 st6">symbolizing wealth, </tspan><tspan x="17.4" y="86.4" class="st4 st5 st6">status, and the </tspan><tspan x="-22.2" y="115.2" class="st4 st5 st6">majesty of royalty.</tspan></text>
<rect x="619.5" y="1361.2" class="st3" width="139.9" height="142.5"/>
<text transform="matrix(0.9824 0 0 1 637.0471 1379.4707)"><tspan x="0" y="0" class="st4 st5 st6">Jingdezhen </tspan><tspan x="12.3" y="28.8" class="st4 st5 st6">porcelains </tspan><tspan x="-12.5" y="57.6" class="st4 st5 st6">have at least </tspan><tspan x="-7.9" y="86.4" class="st4 st5 st6">three layers.</tspan></text>
<rect x="522.2" y="1533.1" class="st3" width="234.9" height="177.2"/>
<text transform="matrix(0.9824 0 0 1 522.2297 1551.3889)"><tspan x="0" y="0" class="st4 st5 st6">The peony is </tspan><tspan x="0" y="28.8" class="st4 st5 st6">presented from </tspan><tspan x="0" y="57.6" class="st4 st5 st6">different perspectives </tspan><tspan x="0" y="86.4" class="st4 st5 st6">to showcase the </tspan><tspan x="0" y="115.2" class="st4 st5 st6">beauty of the flower </tspan><tspan x="0" y="144" class="st4 st5 st6">from various angles.</tspan></text>
<g>
	<rect x="495.7" y="1966.5" class="st3" width="238.4" height="211"/>
	<text transform="matrix(0.9824 0 0 1 495.6995 1984.793)"><tspan x="0" y="0" class="st4 st5 st6">The bottom is </tspan><tspan x="0" y="28.8" class="st4 st5 st6">decorated with seven </tspan><tspan x="0" y="57.6" class="st4 st5 st6">hanging branch </tspan><tspan x="0" y="86.4" class="st4 st5 st6">patterns, with a </tspan><tspan x="0" y="115.2" class="st4 st5 st6">uniform rhythm that </tspan><tspan x="0" y="144" class="st4 st5 st6">provides a sense of </tspan><tspan x="0" y="172.8" class="st4 st5 st6">balance and stability.</tspan></text>
</g>
<g>
	<rect x="551.2" y="256.5" class="st3" width="211.9" height="163.8"/>
	<text transform="matrix(0.9824 0 0 1 551.1526 274.7776)"><tspan x="0" y="0" class="st4 st5 st6">Eleven consecrated </tspan><tspan x="0" y="28.8" class="st4 st5 st6">decorative frames </tspan><tspan x="0" y="57.6" class="st4 st5 st6">are painted with </tspan><tspan x="0" y="86.4" class="st4 st5 st6">Taoist patterns and </tspan><tspan x="0" y="115.2" class="st4 st5 st6">auspicious </tspan><tspan x="0" y="144" class="st4 st5 st6">symbols.</tspan></text>
</g>
<path class="st7" d="M523.1,1839.5c0,0-214.2-31.1-249-320.1"/>
<polygon class="st8" points="581.5,819.9 511.4,819.9 500.7,864.3 498,819.9 454.3,819.9 454.3,786.6 581.5,786.6 "/>
<text transform="matrix(0.9824 0 0 1 463.1926 809.7416)" class="st9 st10 st6">Clay layer</text>
<polygon class="st8" points="450.7,1045.5 291.4,1045.5 291.4,1012.1 450.7,1012.1 450.7,1022.2 530.2,1026.2 450.7,1029.8 
	450.7,1040.7 "/>
<text transform="matrix(0.9824 0 0 1 299.3518 1036.1769)" class="st9 st10 st6">Layer of paint</text>
<polygon class="st8" points="634.1,1296.7 681.7,1296.7 683.5,1258.2 695.1,1296.7 776.6,1296.7 776.6,1330.1 634.1,1330.1 "/>
<text transform="matrix(0.9824 0 0 1 645.1213 1321.1729)" class="st9 st10 st6">Glaze layer</text>
<polygon class="st4" points="744.6,1351 711.8,1351 728.2,1334.3 "/>
<rect x="201.4" y="102" class="st3" width="332.6" height="106.1"/>
<text transform="matrix(0.9824 0 0 1 201.4016 120.2905)"><tspan x="0" y="0" class="st4 st5 st6">This vase was created during </tspan><tspan x="0" y="28.8" class="st4 st5 st6">the Yuan Dynasty (1271-1368). </tspan><tspan x="0" y="57.6" class="st4 st5 st6">It was originally exported to the </tspan><tspan x="0" y="86.4" class="st4 st5 st6">Islamic market.</tspan></text>
</svg>
